<svg xmlns="http://www.w3.org/2000/svg" width="1200" height="420" viewBox="0 0 1200 420" fill="none">
  <rect width="1200" height="420" rx="20" fill="#0F172A"/>

  <!-- Title -->
  <text x="600" y="44" fill="#F8FAFC" font-family="Arial, sans-serif" font-size="22" font-weight="700" text-anchor="middle">Kube AI Hub Platform Architecture</text>
  <text x="600" y="68" fill="#64748B" font-family="Arial, sans-serif" font-size="14" text-anchor="middle">Decoupled frontend/backend cloud-native architecture with Kubernetes as the compute kernel</text>
  <line x1="56" y1="84" x2="1144" y2="84" stroke="#1E293B" stroke-width="1"/>

  <!--  Frontend Panel  -->
  <rect x="48" y="100" width="320" height="284" rx="14" fill="#0D1B2A" stroke="#1E3A5F"/>
  <text x="208" y="128" fill="#7DD3FC" font-family="Arial, sans-serif" font-size="14" font-weight="700" text-anchor="middle">Frontend (Web Console)</text>
  <line x1="68" y1="138" x2="348" y2="138" stroke="#1E3A5F" stroke-width="1"/>

  <!-- Frontend tech stack -->
  <rect x="72" y="152" width="88" height="36" rx="8" fill="#172033" stroke="#334155"/>
  <text x="116" y="175" fill="#E2E8F0" font-family="Arial, sans-serif" font-size="13" font-weight="600" text-anchor="middle">React</text>

  <rect x="172" y="152" width="88" height="36" rx="8" fill="#172033" stroke="#334155"/>
  <text x="216" y="175" fill="#E2E8F0" font-family="Arial, sans-serif" font-size="13" font-weight="600" text-anchor="middle">MobX</text>

  <rect x="272" y="152" width="80" height="36" rx="8" fill="#172033" stroke="#334155"/>
  <text x="312" y="175" fill="#E2E8F0" font-family="Arial, sans-serif" font-size="13" font-weight="600" text-anchor="middle">Koa</text>

  <!-- Frontend features -->
  <text x="72" y="218" fill="#94A3B8" font-family="Arial, sans-serif" font-size="12" font-weight="600">Core Modules</text>
  <rect x="72" y="228" width="140" height="28" rx="6" fill="#111827" stroke="#1E293B"/>
  <text x="142" y="246" fill="#CBD5E1" font-family="Arial, sans-serif" font-size="12" text-anchor="middle">Cluster Dashboard</text>
  <rect x="220" y="228" width="132" height="28" rx="6" fill="#111827" stroke="#1E293B"/>
  <text x="286" y="246" fill="#CBD5E1" font-family="Arial, sans-serif" font-size="12" text-anchor="middle">GPU Node Mgmt</text>
  <rect x="72" y="264" width="140" height="28" rx="6" fill="#111827" stroke="#1E293B"/>
  <text x="142" y="282" fill="#CBD5E1" font-family="Arial, sans-serif" font-size="12" text-anchor="middle">Job Queue Scheduler</text>
  <rect x="220" y="264" width="132" height="28" rx="6" fill="#111827" stroke="#1E293B"/>
  <text x="286" y="282" fill="#CBD5E1" font-family="Arial, sans-serif" font-size="12" text-anchor="middle">Monitoring &amp; Alerts</text>
  <rect x="72" y="300" width="140" height="28" rx="6" fill="#111827" stroke="#1E293B"/>
  <text x="142" y="318" fill="#CBD5E1" font-family="Arial, sans-serif" font-size="12" text-anchor="middle">Tenant &amp; RBAC</text>
  <rect x="220" y="300" width="132" height="28" rx="6" fill="#111827" stroke="#1E293B"/>
  <text x="286" y="318" fill="#CBD5E1" font-family="Arial, sans-serif" font-size="12" text-anchor="middle">Metering &amp; Billing</text>
  <rect x="72" y="336" width="140" height="28" rx="6" fill="#111827" stroke="#1E293B"/>
  <text x="142" y="354" fill="#CBD5E1" font-family="Arial, sans-serif" font-size="12" text-anchor="middle">App Marketplace</text>
  <rect x="220" y="336" width="132" height="28" rx="6" fill="#111827" stroke="#1E293B"/>
  <text x="286" y="354" fill="#CBD5E1" font-family="Arial, sans-serif" font-size="12" text-anchor="middle">Log Explorer</text>

  <!-- Arrow Frontend ' API -->
  <line x1="368" y1="242" x2="430" y2="242" stroke="#334155" stroke-width="2" stroke-dasharray="5,3"/>
  <polygon points="430,236 442,242 430,248" fill="#334155"/>
  <text x="400" y="232" fill="#475569" font-family="Arial, sans-serif" font-size="10" text-anchor="middle">REST API</text>

  <!--  API Gateway Panel  -->
  <rect x="444" y="140" width="160" height="200" rx="12" fill="#1E1040" stroke="#6D28D9"/>
  <text x="524" y="166" fill="#C4B5FD" font-family="Arial, sans-serif" font-size="13" font-weight="700" text-anchor="middle">API Gateway</text>
  <line x1="460" y1="174" x2="588" y2="174" stroke="#4C1D95" stroke-width="1"/>
  <rect x="460" y="184" width="128" height="26" rx="6" fill="#2D1060" stroke="#7C3AED"/>
  <text x="524" y="201" fill="#DDD6FE" font-family="Arial, sans-serif" font-size="11" text-anchor="middle">Auth / AuthZ</text>
  <rect x="460" y="218" width="128" height="26" rx="6" fill="#2D1060" stroke="#7C3AED"/>
  <text x="524" y="235" fill="#DDD6FE" font-family="Arial, sans-serif" font-size="11" text-anchor="middle">Rate Limit / Circuit Breaker</text>
  <rect x="460" y="252" width="128" height="26" rx="6" fill="#2D1060" stroke="#7C3AED"/>
  <text x="524" y="269" fill="#DDD6FE" font-family="Arial, sans-serif" font-size="11" text-anchor="middle">Routing / Load Balance</text>
  <rect x="460" y="286" width="128" height="26" rx="6" fill="#2D1060" stroke="#7C3AED"/>
  <text x="524" y="303" fill="#DDD6FE" font-family="Arial, sans-serif" font-size="11" text-anchor="middle">Audit Logging</text>

  <!-- Arrow API ' Backend -->
  <line x1="604" y1="242" x2="660" y2="242" stroke="#334155" stroke-width="2" stroke-dasharray="5,3"/>
  <polygon points="660,236 672,242 660,248" fill="#334155"/>

  <!--  Backend Panel  -->
  <rect x="672" y="100" width="480" height="284" rx="14" fill="#0D1B2A" stroke="#1E3A5F"/>
  <text x="912" y="128" fill="#7DD3FC" font-family="Arial, sans-serif" font-size="14" font-weight="700" text-anchor="middle">Backend (Kube AI Hub System)</text>
  <line x1="692" y1="138" x2="1132" y2="138" stroke="#1E3A5F" stroke-width="1"/>

  <!-- Backend services -->
  <rect x="692" y="152" width="200" height="60" rx="8" fill="#111827" stroke="#334155"/>
  <text x="792" y="178" fill="#38BDF8" font-family="Arial, sans-serif" font-size="13" font-weight="600" text-anchor="middle">API Server</text>
  <text x="792" y="198" fill="#64748B" font-family="Arial, sans-serif" font-size="11" text-anchor="middle">Kubernetes API Proxy</text>

  <rect x="912" y="152" width="200" height="60" rx="8" fill="#111827" stroke="#334155"/>
  <text x="1012" y="178" fill="#38BDF8" font-family="Arial, sans-serif" font-size="13" font-weight="600" text-anchor="middle">Controller Manager</text>
  <text x="1012" y="198" fill="#64748B" font-family="Arial, sans-serif" font-size="11" text-anchor="middle">Resource Controllers</text>

  <rect x="692" y="228" width="200" height="60" rx="8" fill="#111827" stroke="#334155"/>
  <text x="792" y="254" fill="#38BDF8" font-family="Arial, sans-serif" font-size="13" font-weight="600" text-anchor="middle">Account Service</text>
  <text x="792" y="274" fill="#64748B" font-family="Arial, sans-serif" font-size="11" text-anchor="middle">Multi-tenant Identity</text>

  <rect x="912" y="228" width="200" height="60" rx="8" fill="#111827" stroke="#334155"/>
  <text x="1012" y="254" fill="#38BDF8" font-family="Arial, sans-serif" font-size="13" font-weight="600" text-anchor="middle">GPU Scheduler</text>
  <text x="1012" y="274" fill="#64748B" font-family="Arial, sans-serif" font-size="11" text-anchor="middle">vGPU Scheduling Engine</text>

  <!-- Kubernetes layer -->
  <rect x="692" y="304" width="420" height="56" rx="8" fill="#0F1F35" stroke="#1E3A5F"/>
  <text x="902" y="330" fill="#7DD3FC" font-family="Arial, sans-serif" font-size="13" font-weight="700" text-anchor="middle">Kubernetes</text>
  <text x="902" y="350" fill="#475569" font-family="Arial, sans-serif" font-size="11" text-anchor="middle">GPU Clusters - CPU Clusters - File Storage</text>

  <!-- Connectors -->
  <line x1="792" y1="212" x2="792" y2="228" stroke="#334155" stroke-width="1" stroke-dasharray="3,2"/>
  <line x1="1012" y1="212" x2="1012" y2="228" stroke="#334155" stroke-width="1" stroke-dasharray="3,2"/>
  <line x1="792" y1="288" x2="792" y2="304" stroke="#334155" stroke-width="1" stroke-dasharray="3,2"/>
  <line x1="1012" y1="288" x2="1012" y2="304" stroke="#334155" stroke-width="1" stroke-dasharray="3,2"/>
</svg>
