<svg xmlns="http://www.w3.org/2000/svg" width="1200" height="520" viewBox="0 0 1200 520" fill="none">
  <rect width="1200" height="520" rx="24" fill="#0F172A"/>
  <text x="56" y="60" fill="#F8FAFC" font-family="Arial, sans-serif" font-size="30" font-weight="700">Multi-tenancy Architecture</text>
  <text x="56" y="94" fill="#94A3B8" font-family="Arial, sans-serif" font-size="18">Platform, workspace, and project levels combine RBAC and quotas to isolate tenants across shared clusters.</text>

  <rect x="452" y="132" width="296" height="84" rx="18" fill="#1D4ED8" fill-opacity=".18" stroke="#60A5FA"/>
  <text x="514" y="166" fill="#F8FAFC" font-family="Arial, sans-serif" font-size="24" font-weight="700">Platform</text>
  <text x="492" y="194" fill="#BFDBFE" font-family="Arial, sans-serif" font-size="16">Clusters, users, global policies</text>

  <rect x="126" y="272" width="320" height="132" rx="18" fill="#111827" stroke="#334155"/>
  <rect x="754" y="272" width="320" height="132" rx="18" fill="#111827" stroke="#334155"/>
  <text x="196" y="316" fill="#F8FAFC" font-family="Arial, sans-serif" font-size="24" font-weight="700">Workspace A</text>
  <text x="824" y="316" fill="#F8FAFC" font-family="Arial, sans-serif" font-size="24" font-weight="700">Workspace B</text>
  <text x="164" y="346" fill="#CBD5E1" font-family="Arial, sans-serif" font-size="16">Members, quotas, cluster visibility</text>
  <text x="792" y="346" fill="#CBD5E1" font-family="Arial, sans-serif" font-size="16">Members, quotas, cluster visibility</text>
  <text x="164" y="376" fill="#38BDF8" font-family="Arial, sans-serif" font-size="16">Projects and DevOps spaces</text>
  <text x="792" y="376" fill="#38BDF8" font-family="Arial, sans-serif" font-size="16">Projects and DevOps spaces</text>

  <rect x="452" y="430" width="296" height="48" rx="14" fill="#0B1220" stroke="#334155"/>
  <text x="496" y="460" fill="#E2E8F0" font-family="Arial, sans-serif" font-size="18">Shared Kubernetes clusters</text>

  <path d="M600 216V246" stroke="#475569" stroke-width="4" stroke-linecap="round"/>
  <path d="M286 272V246H914V272" stroke="#475569" stroke-width="4" stroke-linecap="round" stroke-linejoin="round"/>
  <path d="M286 404V430" stroke="#475569" stroke-width="4" stroke-linecap="round"/>
  <path d="M914 404V430" stroke="#475569" stroke-width="4" stroke-linecap="round"/>
  <path d="M286 430H914" stroke="#475569" stroke-width="4" stroke-linecap="round"/>
</svg>
