<svg xmlns="http://www.w3.org/2000/svg" width="1200" height="420" viewBox="0 0 1200 420" fill="none">
  <rect width="1200" height="420" rx="24" fill="#0F172A"/>
  <text x="56" y="60" fill="#F8FAFC" font-family="Arial, sans-serif" font-size="30" font-weight="700">Authentication and Authorization Chain</text>
  <text x="56" y="94" fill="#94A3B8" font-family="Arial, sans-serif" font-size="18">Requests pass through login, API validation, RBAC, and policy checks before reaching Kubernetes resources.</text>

  <rect x="64" y="172" width="180" height="96" rx="18" fill="#111827" stroke="#334155"/>
  <rect x="294" y="172" width="180" height="96" rx="18" fill="#111827" stroke="#334155"/>
  <rect x="524" y="172" width="180" height="96" rx="18" fill="#111827" stroke="#334155"/>
  <rect x="754" y="172" width="180" height="96" rx="18" fill="#111827" stroke="#334155"/>
  <rect x="984" y="172" width="152" height="96" rx="18" fill="#111827" stroke="#334155"/>
  <text x="120" y="214" fill="#F8FAFC" font-family="Arial, sans-serif" font-size="22" font-weight="700">User</text>
  <text x="331" y="214" fill="#F8FAFC" font-family="Arial, sans-serif" font-size="22" font-weight="700">ks-apiserver</text>
  <text x="589" y="214" fill="#F8FAFC" font-family="Arial, sans-serif" font-size="22" font-weight="700">RBAC</text>
  <text x="820" y="214" fill="#F8FAFC" font-family="Arial, sans-serif" font-size="22" font-weight="700">OPA / Policy</text>
  <text x="1018" y="214" fill="#F8FAFC" font-family="Arial, sans-serif" font-size="22" font-weight="700">K8s API</text>
  <text x="94" y="244" fill="#CBD5E1" font-family="Arial, sans-serif" font-size="15">Login and request</text>
  <text x="320" y="244" fill="#CBD5E1" font-family="Arial, sans-serif" font-size="15">Authn and aggregation</text>
  <text x="557" y="244" fill="#CBD5E1" font-family="Arial, sans-serif" font-size="15">Role checks</text>
  <text x="786" y="244" fill="#CBD5E1" font-family="Arial, sans-serif" font-size="15">Extended guardrails</text>
  <text x="1001" y="244" fill="#CBD5E1" font-family="Arial, sans-serif" font-size="15">Resource access</text>

  <path d="M244 220H278" stroke="#475569" stroke-width="4" stroke-linecap="round"/>
  <path d="M474 220H508" stroke="#475569" stroke-width="4" stroke-linecap="round"/>
  <path d="M704 220H738" stroke="#475569" stroke-width="4" stroke-linecap="round"/>
  <path d="M934 220H968" stroke="#475569" stroke-width="4" stroke-linecap="round"/>
  <path d="M260 206L280 220L260 234" stroke="#475569" stroke-width="4" stroke-linecap="round" stroke-linejoin="round"/>
  <path d="M490 206L510 220L490 234" stroke="#475569" stroke-width="4" stroke-linecap="round" stroke-linejoin="round"/>
  <path d="M720 206L740 220L720 234" stroke="#475569" stroke-width="4" stroke-linecap="round" stroke-linejoin="round"/>
  <path d="M950 206L970 220L950 234" stroke="#475569" stroke-width="4" stroke-linecap="round" stroke-linejoin="round"/>
</svg>
