<svg xmlns="http://www.w3.org/2000/svg" width="1200" height="560" viewBox="0 0 1200 560" fill="none">
  <rect width="1200" height="560" rx="20" fill="#0F172A"/>

  <!-- Title -->
  <text x="600" y="46" fill="#F8FAFC" font-family="Arial, sans-serif" font-size="22" font-weight="700" text-anchor="middle">Kube AI Hub Ecosystem</text>
  <text x="600" y="70" fill="#64748B" font-family="Arial, sans-serif" font-size="14" text-anchor="middle">Integrated open-source tools for AI compute management — all loosely coupled and optional</text>
  <line x1="56" y1="84" x2="1144" y2="84" stroke="#1E293B" stroke-width="1"/>

  <!-- Center: Kube AI Hub -->
  <rect x="476" y="220" width="248" height="72" rx="16" fill="#1E0A3C" stroke="#7C3AED"/>
  <text x="600" y="255" fill="#C4B5FD" font-family="Arial, sans-serif" font-size="18" font-weight="700" text-anchor="middle">Kube AI Hub</text>
  <text x="600" y="278" fill="#7C3AED" font-family="Arial, sans-serif" font-size="12" text-anchor="middle">Kubernetes-native AI Compute Platform</text>

  <!-- Category boxes -->

  <!-- GPU & Scheduling -->
  <rect x="56" y="100" width="220" height="140" rx="14" fill="#0A1929" stroke="#1E3A5F"/>
  <text x="166" y="126" fill="#7DD3FC" font-family="Arial, sans-serif" font-size="13" font-weight="700" text-anchor="middle">GPU &amp; Scheduling</text>
  <line x1="76" y1="134" x2="256" y2="134" stroke="#1E3A5F" stroke-width="1"/>
  <rect x="76" y="144" width="160" height="26" rx="6" fill="#111827" stroke="#334155"/>
  <text x="156" y="161" fill="#94A3B8" font-family="Arial, sans-serif" font-size="12" text-anchor="middle">NVIDIA DCGM</text>
  <rect x="76" y="178" width="160" height="26" rx="6" fill="#111827" stroke="#334155"/>
  <text x="156" y="195" fill="#94A3B8" font-family="Arial, sans-serif" font-size="12" text-anchor="middle">vGPU Scheduler</text>
  <rect x="76" y="212" width="160" height="26" rx="6" fill="#111827" stroke="#334155"/>
  <text x="156" y="229" fill="#94A3B8" font-family="Arial, sans-serif" font-size="12" text-anchor="middle">Volcano / Koordinator</text>

  <!-- Monitoring -->
  <rect x="56" y="260" width="220" height="140" rx="14" fill="#0A1929" stroke="#1E3A5F"/>
  <text x="166" y="286" fill="#7DD3FC" font-family="Arial, sans-serif" font-size="13" font-weight="700" text-anchor="middle">Monitoring</text>
  <line x1="76" y1="294" x2="256" y2="294" stroke="#1E3A5F" stroke-width="1"/>
  <rect x="76" y="304" width="160" height="26" rx="6" fill="#111827" stroke="#334155"/>
  <text x="156" y="321" fill="#94A3B8" font-family="Arial, sans-serif" font-size="12" text-anchor="middle">Prometheus</text>
  <rect x="76" y="338" width="160" height="26" rx="6" fill="#111827" stroke="#334155"/>
  <text x="156" y="355" fill="#94A3B8" font-family="Arial, sans-serif" font-size="12" text-anchor="middle">AlertManager</text>
  <rect x="76" y="372" width="160" height="26" rx="6" fill="#111827" stroke="#334155"/>
  <text x="156" y="389" fill="#94A3B8" font-family="Arial, sans-serif" font-size="12" text-anchor="middle">metrics-server</text>

  <!-- Container Registry -->
  <rect x="332" y="100" width="220" height="110" rx="14" fill="#0A1929" stroke="#1E3A5F"/>
  <text x="442" y="126" fill="#7DD3FC" font-family="Arial, sans-serif" font-size="13" font-weight="700" text-anchor="middle">Registry &amp; Apps</text>
  <line x1="352" y1="134" x2="532" y2="134" stroke="#1E3A5F" stroke-width="1"/>
  <rect x="352" y="144" width="160" height="26" rx="6" fill="#111827" stroke="#334155"/>
  <text x="432" y="161" fill="#94A3B8" font-family="Arial, sans-serif" font-size="12" text-anchor="middle">Harbor</text>
  <rect x="352" y="178" width="160" height="26" rx="6" fill="#111827" stroke="#334155"/>
  <text x="432" y="195" fill="#94A3B8" font-family="Arial, sans-serif" font-size="12" text-anchor="middle">Helm / OpenPitrix</text>

  <!-- Identity -->
  <rect x="332" y="390" width="220" height="110" rx="14" fill="#0A1929" stroke="#1E3A5F"/>
  <text x="442" y="416" fill="#7DD3FC" font-family="Arial, sans-serif" font-size="13" font-weight="700" text-anchor="middle">Identity &amp; Auth</text>
  <line x1="352" y1="424" x2="532" y2="424" stroke="#1E3A5F" stroke-width="1"/>
  <rect x="352" y="434" width="160" height="26" rx="6" fill="#111827" stroke="#334155"/>
  <text x="432" y="451" fill="#94A3B8" font-family="Arial, sans-serif" font-size="12" text-anchor="middle">OpenLDAP / AD</text>
  <rect x="352" y="468" width="160" height="26" rx="6" fill="#111827" stroke="#334155"/>
  <text x="432" y="485" fill="#94A3B8" font-family="Arial, sans-serif" font-size="12" text-anchor="middle">OAuth2 / SSO</text>

  <!-- Logging -->
  <rect x="648" y="100" width="220" height="140" rx="14" fill="#0A1929" stroke="#1E3A5F"/>
  <text x="758" y="126" fill="#7DD3FC" font-family="Arial, sans-serif" font-size="13" font-weight="700" text-anchor="middle">Logging</text>
  <line x1="668" y1="134" x2="848" y2="134" stroke="#1E3A5F" stroke-width="1"/>
  <rect x="668" y="144" width="160" height="26" rx="6" fill="#111827" stroke="#334155"/>
  <text x="748" y="161" fill="#94A3B8" font-family="Arial, sans-serif" font-size="12" text-anchor="middle">Fluent Bit</text>
  <rect x="668" y="178" width="160" height="26" rx="6" fill="#111827" stroke="#334155"/>
  <text x="748" y="195" fill="#94A3B8" font-family="Arial, sans-serif" font-size="12" text-anchor="middle">Elasticsearch</text>
  <rect x="668" y="212" width="160" height="26" rx="6" fill="#111827" stroke="#334155"/>
  <text x="748" y="229" fill="#94A3B8" font-family="Arial, sans-serif" font-size="12" text-anchor="middle">Kafka</text>

  <!-- Notification -->
  <rect x="648" y="390" width="220" height="110" rx="14" fill="#0A1929" stroke="#1E3A5F"/>
  <text x="758" y="416" fill="#7DD3FC" font-family="Arial, sans-serif" font-size="13" font-weight="700" text-anchor="middle">Notifications</text>
  <line x1="668" y1="424" x2="848" y2="424" stroke="#1E3A5F" stroke-width="1"/>
  <rect x="668" y="434" width="160" height="26" rx="6" fill="#111827" stroke="#334155"/>
  <text x="748" y="451" fill="#94A3B8" font-family="Arial, sans-serif" font-size="12" text-anchor="middle">Email / DingTalk</text>
  <rect x="668" y="468" width="160" height="26" rx="6" fill="#111827" stroke="#334155"/>
  <text x="748" y="485" fill="#94A3B8" font-family="Arial, sans-serif" font-size="12" text-anchor="middle">WeCom / Slack</text>

  <!-- Storage -->
  <rect x="924" y="100" width="220" height="140" rx="14" fill="#0A1929" stroke="#1E3A5F"/>
  <text x="1034" y="126" fill="#7DD3FC" font-family="Arial, sans-serif" font-size="13" font-weight="700" text-anchor="middle">Storage</text>
  <line x1="944" y1="134" x2="1124" y2="134" stroke="#1E3A5F" stroke-width="1"/>
  <rect x="944" y="144" width="160" height="26" rx="6" fill="#111827" stroke="#334155"/>
  <text x="1024" y="161" fill="#94A3B8" font-family="Arial, sans-serif" font-size="12" text-anchor="middle">Ceph RBD / CSI</text>
  <rect x="944" y="178" width="160" height="26" rx="6" fill="#111827" stroke="#334155"/>
  <text x="1024" y="195" fill="#94A3B8" font-family="Arial, sans-serif" font-size="12" text-anchor="middle">NFS / GlusterFS</text>
  <rect x="944" y="212" width="160" height="26" rx="6" fill="#111827" stroke="#334155"/>
  <text x="1024" y="229" fill="#94A3B8" font-family="Arial, sans-serif" font-size="12" text-anchor="middle">LocalPV / S3</text>

  <!-- Network -->
  <rect x="924" y="260" width="220" height="140" rx="14" fill="#0A1929" stroke="#1E3A5F"/>
  <text x="1034" y="286" fill="#7DD3FC" font-family="Arial, sans-serif" font-size="13" font-weight="700" text-anchor="middle">Network</text>
  <line x1="944" y1="294" x2="1124" y2="294" stroke="#1E3A5F" stroke-width="1"/>
  <rect x="944" y="304" width="160" height="26" rx="6" fill="#111827" stroke="#334155"/>
  <text x="1024" y="321" fill="#94A3B8" font-family="Arial, sans-serif" font-size="12" text-anchor="middle">Calico / Flannel</text>
  <rect x="944" y="338" width="160" height="26" rx="6" fill="#111827" stroke="#334155"/>
  <text x="1024" y="355" fill="#94A3B8" font-family="Arial, sans-serif" font-size="12" text-anchor="middle">OpenELB (LB)</text>
  <rect x="944" y="372" width="160" height="26" rx="6" fill="#111827" stroke="#334155"/>
  <text x="1024" y="389" fill="#94A3B8" font-family="Arial, sans-serif" font-size="12" text-anchor="middle">KubeEdge</text>

  <!-- Connector lines from center to boxes -->
  <line x1="476" y1="256" x2="276" y2="180" stroke="#334155" stroke-width="1" stroke-dasharray="4,3"/>
  <line x1="476" y1="270" x2="276" y2="330" stroke="#334155" stroke-width="1" stroke-dasharray="4,3"/>
  <line x1="476" y1="244" x2="552" y2="170" stroke="#334155" stroke-width="1" stroke-dasharray="4,3"/>
  <line x1="476" y1="278" x2="552" y2="430" stroke="#334155" stroke-width="1" stroke-dasharray="4,3"/>
  <line x1="724" y1="244" x2="648" y2="170" stroke="#334155" stroke-width="1" stroke-dasharray="4,3"/>
  <line x1="724" y1="278" x2="648" y2="430" stroke="#334155" stroke-width="1" stroke-dasharray="4,3"/>
  <line x1="724" y1="256" x2="924" y2="180" stroke="#334155" stroke-width="1" stroke-dasharray="4,3"/>
  <line x1="724" y1="270" x2="924" y2="330" stroke="#334155" stroke-width="1" stroke-dasharray="4,3"/>

  <!-- Bottom label -->
  <text x="600" y="530" fill="#475569" font-family="Arial, sans-serif" font-size="12" text-anchor="middle">All components are loosely coupled — enable only what you need</text>
</svg>
