<svg xmlns="http://www.w3.org/2000/svg" width="1200" height="680" viewBox="0 0 1200 680" fill="none">
  <rect width="1200" height="680" rx="24" fill="#0F172A"/>
  <rect x="28" y="28" width="1144" height="624" rx="22" fill="#111827" stroke="#334155"/>

  <text x="56" y="68" fill="#F8FAFC" font-family="Arial, sans-serif" font-size="30" font-weight="700">Ecosystem Architecture</text>
  <text x="56" y="100" fill="#94A3B8" font-family="Arial, sans-serif" font-size="18">Kube AI Hub integrates cloud-native tools through standard APIs and presents them in one unified console experience.</text>

  <rect x="392" y="262" width="416" height="156" rx="20" fill="#1D4ED8" fill-opacity=".15" stroke="#60A5FA"/>
  <text x="518" y="314" fill="#F8FAFC" font-family="Arial, sans-serif" font-size="32" font-weight="700">Kube AI Hub</text>
  <text x="472" y="350" fill="#BFDBFE" font-family="Arial, sans-serif" font-size="18">Unified Console and Control Plane</text>
  <text x="444" y="382" fill="#CBD5E1" font-family="Arial, sans-serif" font-size="16">Authentication · RBAC · Multi-tenancy · Observability</text>

  <rect x="84" y="164" width="240" height="92" rx="16" fill="#0B1220" stroke="#334155"/>
  <text x="136" y="202" fill="#38BDF8" font-family="Arial, sans-serif" font-size="21" font-weight="700">Kubernetes</text>
  <text x="124" y="230" fill="#CBD5E1" font-family="Arial, sans-serif" font-size="15">Cluster and resource orchestration</text>

  <rect x="84" y="306" width="240" height="92" rx="16" fill="#0B1220" stroke="#334155"/>
  <text x="150" y="344" fill="#38BDF8" font-family="Arial, sans-serif" font-size="21" font-weight="700">Istio</text>
  <text x="122" y="372" fill="#CBD5E1" font-family="Arial, sans-serif" font-size="15">Traffic governance and service mesh</text>

  <rect x="84" y="448" width="240" height="92" rx="16" fill="#0B1220" stroke="#334155"/>
  <text x="128" y="486" fill="#38BDF8" font-family="Arial, sans-serif" font-size="21" font-weight="700">Prometheus</text>
  <text x="104" y="514" fill="#CBD5E1" font-family="Arial, sans-serif" font-size="15">Monitoring and alert collection</text>

  <rect x="876" y="164" width="240" height="92" rx="16" fill="#0B1220" stroke="#334155"/>
  <text x="952" y="202" fill="#38BDF8" font-family="Arial, sans-serif" font-size="21" font-weight="700">Jenkins</text>
  <text x="930" y="230" fill="#CBD5E1" font-family="Arial, sans-serif" font-size="15">CI/CD pipelines and automation</text>

  <rect x="876" y="306" width="240" height="92" rx="16" fill="#0B1220" stroke="#334155"/>
  <text x="934" y="344" fill="#38BDF8" font-family="Arial, sans-serif" font-size="21" font-weight="700">OpenELB</text>
  <text x="926" y="372" fill="#CBD5E1" font-family="Arial, sans-serif" font-size="15">Bare-metal load balancing</text>

  <rect x="876" y="448" width="240" height="92" rx="16" fill="#0B1220" stroke="#334155"/>
  <text x="928" y="486" fill="#38BDF8" font-family="Arial, sans-serif" font-size="21" font-weight="700">OpenPitrix</text>
  <text x="916" y="514" fill="#CBD5E1" font-family="Arial, sans-serif" font-size="15">App lifecycle and app store</text>

  <path d="M324 210H372" stroke="#475569" stroke-width="4" stroke-linecap="round"/>
  <path d="M324 352H372" stroke="#475569" stroke-width="4" stroke-linecap="round"/>
  <path d="M324 494H372" stroke="#475569" stroke-width="4" stroke-linecap="round"/>
  <path d="M828 210H876" stroke="#475569" stroke-width="4" stroke-linecap="round"/>
  <path d="M828 352H876" stroke="#475569" stroke-width="4" stroke-linecap="round"/>
  <path d="M828 494H876" stroke="#475569" stroke-width="4" stroke-linecap="round"/>

  <rect x="56" y="584" width="1088" height="42" rx="12" fill="#0B1220" stroke="#334155"/>
  <text x="86" y="611" fill="#E2E8F0" font-family="Arial, sans-serif" font-size="16">Pluggable integrations: storage, logging, tracing, policy, registry, and third-party services.</text>
</svg>
