<?xml version="1.0" encoding="UTF-8"?>
<svg xmlns="http://www.w3.org/2000/svg" width="1200" height="700" viewBox="0 0 1200 700" fill="none">
  <rect width="1200" height="700" rx="20" fill="#0F172A"/>

  <!-- Title -->
  <text x="600" y="48" fill="#F8FAFC" font-family="Arial, sans-serif" font-size="22" font-weight="700" text-anchor="middle">Kube AI Hub 平台功能概览</text>
  <line x1="56" y1="66" x2="1144" y2="66" stroke="#1E293B" stroke-width="1"/>

  <!-- Row 1 Labels -->
  <rect x="56" y="82" width="160" height="80" rx="12" fill="#111827" stroke="#334155"/>
  <text x="136" y="116" fill="#38BDF8" font-family="Arial, sans-serif" font-size="13" font-weight="700" text-anchor="middle">概览</text>
  <text x="136" y="134" fill="#94A3B8" font-family="Arial, sans-serif" font-size="11" text-anchor="middle">集群概览</text>
  <text x="136" y="150" fill="#94A3B8" font-family="Arial, sans-serif" font-size="11" text-anchor="middle">GPU / CPU 使用率</text>

  <rect x="232" y="82" width="160" height="80" rx="12" fill="#111827" stroke="#334155"/>
  <text x="312" y="116" fill="#38BDF8" font-family="Arial, sans-serif" font-size="13" font-weight="700" text-anchor="middle">节点</text>
  <text x="312" y="134" fill="#94A3B8" font-family="Arial, sans-serif" font-size="11" text-anchor="middle">集群节点</text>
  <text x="312" y="150" fill="#94A3B8" font-family="Arial, sans-serif" font-size="11" text-anchor="middle">边缘节点 / GPU 卡</text>

  <rect x="408" y="82" width="160" height="80" rx="12" fill="#111827" stroke="#334155"/>
  <text x="488" y="116" fill="#38BDF8" font-family="Arial, sans-serif" font-size="13" font-weight="700" text-anchor="middle">服务组件</text>
  <text x="488" y="134" fill="#94A3B8" font-family="Arial, sans-serif" font-size="11" text-anchor="middle">系统组件</text>
  <text x="488" y="150" fill="#94A3B8" font-family="Arial, sans-serif" font-size="11" text-anchor="middle">健康与状态</text>

  <rect x="584" y="82" width="160" height="80" rx="12" fill="#111827" stroke="#334155"/>
  <text x="664" y="116" fill="#38BDF8" font-family="Arial, sans-serif" font-size="13" font-weight="700" text-anchor="middle">项目</text>
  <text x="664" y="134" fill="#94A3B8" font-family="Arial, sans-serif" font-size="11" text-anchor="middle">命名空间隔离</text>
  <text x="664" y="150" fill="#94A3B8" font-family="Arial, sans-serif" font-size="11" text-anchor="middle">多租户工作空间</text>

  <rect x="760" y="82" width="160" height="80" rx="12" fill="#111827" stroke="#334155"/>
  <text x="840" y="116" fill="#38BDF8" font-family="Arial, sans-serif" font-size="13" font-weight="700" text-anchor="middle">应用负载</text>
  <text x="840" y="134" fill="#94A3B8" font-family="Arial, sans-serif" font-size="11" text-anchor="middle">部署 / 有状态集</text>
  <text x="840" y="150" fill="#94A3B8" font-family="Arial, sans-serif" font-size="11" text-anchor="middle">任务 / Pod / 服务</text>

  <rect x="936" y="82" width="208" height="80" rx="12" fill="#111827" stroke="#334155"/>
  <text x="1040" y="116" fill="#38BDF8" font-family="Arial, sans-serif" font-size="13" font-weight="700" text-anchor="middle">配置</text>
  <text x="1040" y="134" fill="#94A3B8" font-family="Arial, sans-serif" font-size="11" text-anchor="middle">密钥 / 配置项</text>
  <text x="1040" y="150" fill="#94A3B8" font-family="Arial, sans-serif" font-size="11" text-anchor="middle">服务账号</text>

  <!-- Row 2 -->
  <rect x="56" y="180" width="260" height="80" rx="12" fill="#0F1F35" stroke="#1E3A5F"/>
  <text x="186" y="214" fill="#7DD3FC" font-family="Arial, sans-serif" font-size="13" font-weight="700" text-anchor="middle">存储</text>
  <text x="186" y="232" fill="#64748B" font-family="Arial, sans-serif" font-size="11" text-anchor="middle">PVC / 存储类</text>
  <text x="186" y="248" fill="#64748B" font-family="Arial, sans-serif" font-size="11" text-anchor="middle">卷快照 / 快照类</text>

  <rect x="332" y="180" width="260" height="80" rx="12" fill="#0F1F35" stroke="#1E3A5F"/>
  <text x="462" y="214" fill="#7DD3FC" font-family="Arial, sans-serif" font-size="13" font-weight="700" text-anchor="middle">网络</text>
  <text x="462" y="232" fill="#64748B" font-family="Arial, sans-serif" font-size="11" text-anchor="middle">网络策略</text>
  <text x="462" y="248" fill="#64748B" font-family="Arial, sans-serif" font-size="11" text-anchor="middle">Pod IP 池 / 网关</text>

  <rect x="608" y="180" width="160" height="80" rx="12" fill="#0F1F35" stroke="#1E3A5F"/>
  <text x="688" y="214" fill="#7DD3FC" font-family="Arial, sans-serif" font-size="13" font-weight="700" text-anchor="middle">自定义资源</text>
  <text x="688" y="232" fill="#64748B" font-family="Arial, sans-serif" font-size="11" text-anchor="middle">CRD 管理</text>
  <text x="688" y="248" fill="#64748B" font-family="Arial, sans-serif" font-size="11" text-anchor="middle">（仅管理员）</text>

  <rect x="784" y="180" width="360" height="80" rx="12" fill="#0F1F35" stroke="#1E3A5F"/>
  <text x="964" y="214" fill="#7DD3FC" font-family="Arial, sans-serif" font-size="13" font-weight="700" text-anchor="middle">集群设置</text>
  <text x="964" y="232" fill="#64748B" font-family="Arial, sans-serif" font-size="11" text-anchor="middle">基本信息 / 可见性 / 成员</text>
  <text x="964" y="248" fill="#64748B" font-family="Arial, sans-serif" font-size="11" text-anchor="middle">角色 / 日志收集</text>

  <!-- Monitoring -->
  <rect x="56" y="280" width="1088" height="160" rx="16" fill="#0A1929" stroke="#1E3A5F"/>
  <text x="600" y="310" fill="#A78BFA" font-family="Arial, sans-serif" font-size="15" font-weight="700" text-anchor="middle">监控与告警</text>
  <line x1="76" y1="320" x2="1124" y2="320" stroke="#1E293B" stroke-width="1"/>

  <rect x="76" y="330" width="196" height="90" rx="10" fill="#111827" stroke="#334155"/>
  <text x="174" y="360" fill="#E2E8F0" font-family="Arial, sans-serif" font-size="13" font-weight="600" text-anchor="middle">集群状态</text>
  <text x="174" y="380" fill="#64748B" font-family="Arial, sans-serif" font-size="11" text-anchor="middle">CPU / 内存 / 磁盘</text>
  <text x="174" y="396" fill="#64748B" font-family="Arial, sans-serif" font-size="11" text-anchor="middle">网络 / etcd / API Server</text>
  <text x="174" y="412" fill="#64748B" font-family="Arial, sans-serif" font-size="11" text-anchor="middle">秒级精度</text>

  <rect x="288" y="330" width="196" height="90" rx="10" fill="#1E0A3C" stroke="#6D28D9"/>
  <text x="386" y="360" fill="#C4B5FD" font-family="Arial, sans-serif" font-size="13" font-weight="600" text-anchor="middle">GPU 资源</text>
  <text x="386" y="380" fill="#7C3AED" font-family="Arial, sans-serif" font-size="11" text-anchor="middle">利用率 / 显存使用</text>
  <text x="386" y="396" fill="#7C3AED" font-family="Arial, sans-serif" font-size="11" text-anchor="middle">温度 / 功耗</text>
  <text x="386" y="412" fill="#7C3AED" font-family="Arial, sans-serif" font-size="11" text-anchor="middle">节点与单卡维度</text>

  <rect x="500" y="330" width="196" height="90" rx="10" fill="#111827" stroke="#334155"/>
  <text x="598" y="360" fill="#E2E8F0" font-family="Arial, sans-serif" font-size="13" font-weight="600" text-anchor="middle">应用资源</text>
  <text x="598" y="380" fill="#64748B" font-family="Arial, sans-serif" font-size="11" text-anchor="middle">工作负载用量排行</text>
  <text x="598" y="396" fill="#64748B" font-family="Arial, sans-serif" font-size="11" text-anchor="middle">项目 / 命名空间视角</text>
  <text x="598" y="412" fill="#64748B" font-family="Arial, sans-serif" font-size="11" text-anchor="middle">自定义时间范围</text>

  <rect x="712" y="330" width="196" height="90" rx="10" fill="#111827" stroke="#334155"/>
  <text x="810" y="360" fill="#E2E8F0" font-family="Arial, sans-serif" font-size="13" font-weight="600" text-anchor="middle">告警消息</text>
  <text x="810" y="380" fill="#64748B" font-family="Arial, sans-serif" font-size="11" text-anchor="middle">实时故障告警</text>
  <text x="810" y="396" fill="#64748B" font-family="Arial, sans-serif" font-size="11" text-anchor="middle">节点 / 工作负载 / Pod</text>
  <text x="810" y="412" fill="#64748B" font-family="Arial, sans-serif" font-size="11" text-anchor="middle">多通道通知</text>

  <rect x="924" y="330" width="196" height="90" rx="10" fill="#111827" stroke="#334155"/>
  <text x="1022" y="360" fill="#E2E8F0" font-family="Arial, sans-serif" font-size="13" font-weight="600" text-anchor="middle">告警规则</text>
  <text x="1022" y="380" fill="#64748B" font-family="Arial, sans-serif" font-size="11" text-anchor="middle">自定义阈值</text>
  <text x="1022" y="396" fill="#64748B" font-family="Arial, sans-serif" font-size="11" text-anchor="middle">严重级别</text>
  <text x="1022" y="412" fill="#64748B" font-family="Arial, sans-serif" font-size="11" text-anchor="middle">重复间隔控制</text>

  <!-- Multi-tenant -->
  <rect x="56" y="460" width="525" height="100" rx="16" fill="#0D1A0D" stroke="#166534"/>
  <text x="318" y="490" fill="#86EFAC" font-family="Arial, sans-serif" font-size="15" font-weight="700" text-anchor="middle">多租户与访问控制</text>
  <line x1="76" y1="500" x2="561" y2="500" stroke="#14532D" stroke-width="1"/>
  <rect x="76" y="510" width="140" height="36" rx="8" fill="#111827" stroke="#334155"/>
  <text x="146" y="533" fill="#94A3B8" font-family="Arial, sans-serif" font-size="12" text-anchor="middle">平台管理员</text>
  <rect x="232" y="510" width="140" height="36" rx="8" fill="#111827" stroke="#334155"/>
  <text x="302" y="533" fill="#94A3B8" font-family="Arial, sans-serif" font-size="12" text-anchor="middle">工作空间管理员</text>
  <rect x="388" y="510" width="148" height="36" rx="8" fill="#111827" stroke="#334155"/>
  <text x="462" y="533" fill="#94A3B8" font-family="Arial, sans-serif" font-size="12" text-anchor="middle">项目成员</text>

  <!-- Log Collection -->
  <rect x="599" y="460" width="253" height="100" rx="16" fill="#1A1207" stroke="#92400E"/>
  <text x="725" y="490" fill="#FCD34D" font-family="Arial, sans-serif" font-size="15" font-weight="700" text-anchor="middle">日志收集</text>
  <line x1="619" y1="500" x2="832" y2="500" stroke="#78350F" stroke-width="1"/>
  <text x="725" y="524" fill="#92400E" font-family="Arial, sans-serif" font-size="12" text-anchor="middle">多租户日志隔离</text>
  <text x="725" y="542" fill="#92400E" font-family="Arial, sans-serif" font-size="12" text-anchor="middle">Elasticsearch / Kafka / Fluentd</text>

  <!-- Access Control -->
  <rect x="870" y="460" width="274" height="100" rx="16" fill="#0A0A1A" stroke="#4338CA"/>
  <text x="1007" y="490" fill="#818CF8" font-family="Arial, sans-serif" font-size="15" font-weight="700" text-anchor="middle">访问与认证</text>
  <line x1="890" y1="500" x2="1124" y2="500" stroke="#312E81" stroke-width="1"/>
  <text x="1007" y="524" fill="#4338CA" font-family="Arial, sans-serif" font-size="12" text-anchor="middle">LDAP / AD / SSO 集成</text>
  <text x="1007" y="542" fill="#4338CA" font-family="Arial, sans-serif" font-size="12" text-anchor="middle">基于角色的细粒度认证</text>

  <!-- Hardware -->
  <rect x="56" y="580" width="1088" height="94" rx="16" fill="#0D1B2A" stroke="#1E3A5F"/>
  <text x="600" y="608" fill="#7DD3FC" font-family="Arial, sans-serif" font-size="15" font-weight="700" text-anchor="middle">异构硬件 Kubernetes 基础设施</text>
  <line x1="76" y1="618" x2="1124" y2="618" stroke="#1E293B" stroke-width="1"/>

  <rect x="80" y="628" width="120" height="32" rx="8" fill="#111827" stroke="#334155"/>
  <text x="140" y="649" fill="#7DD3FC" font-family="Arial, sans-serif" font-size="12" text-anchor="middle">NVIDIA GPU</text>
  <rect x="216" y="628" width="120" height="32" rx="8" fill="#111827" stroke="#334155"/>
  <text x="276" y="649" fill="#7DD3FC" font-family="Arial, sans-serif" font-size="12" text-anchor="middle">华为昇腾</text>
  <rect x="352" y="628" width="120" height="32" rx="8" fill="#111827" stroke="#334155"/>
  <text x="412" y="649" fill="#7DD3FC" font-family="Arial, sans-serif" font-size="12" text-anchor="middle">寒武纪</text>
  <rect x="488" y="628" width="120" height="32" rx="8" fill="#111827" stroke="#334155"/>
  <text x="548" y="649" fill="#7DD3FC" font-family="Arial, sans-serif" font-size="12" text-anchor="middle">燧原</text>
  <rect x="624" y="628" width="120" height="32" rx="8" fill="#111827" stroke="#334155"/>
  <text x="684" y="649" fill="#7DD3FC" font-family="Arial, sans-serif" font-size="12" text-anchor="middle">Intel / AMD CPU</text>
  <rect x="760" y="628" width="120" height="32" rx="8" fill="#111827" stroke="#334155"/>
  <text x="820" y="649" fill="#7DD3FC" font-family="Arial, sans-serif" font-size="12" text-anchor="middle">S3 / NFS / Ceph</text>
  <rect x="896" y="628" width="120" height="32" rx="8" fill="#111827" stroke="#334155"/>
  <text x="956" y="649" fill="#7DD3FC" font-family="Arial, sans-serif" font-size="12" text-anchor="middle">Calico / Flannel</text>
  <rect x="1032" y="628" width="96" height="32" rx="8" fill="#111827" stroke="#334155"/>
  <text x="1080" y="649" fill="#7DD3FC" font-family="Arial, sans-serif" font-size="12" text-anchor="middle">更多</text>
</svg>
