<svg xmlns="http://www.w3.org/2000/svg" width="1200" height="440" viewBox="0 0 1200 440" fill="none">
  <rect width="1200" height="440" rx="24" fill="#0F172A"/>
  <text x="56" y="60" fill="#F8FAFC" font-family="Arial, sans-serif" font-size="30" font-weight="700">DevOps Delivery Flow</text>
  <text x="56" y="94" fill="#94A3B8" font-family="Arial, sans-serif" font-size="18">Teams build, test, and release across isolated environments with pipeline-driven automation.</text>

  <rect x="70" y="168" width="214" height="108" rx="18" fill="#111827" stroke="#334155"/>
  <rect x="352" y="168" width="214" height="108" rx="18" fill="#111827" stroke="#334155"/>
  <rect x="634" y="168" width="214" height="108" rx="18" fill="#111827" stroke="#334155"/>
  <rect x="916" y="168" width="214" height="108" rx="18" fill="#111827" stroke="#334155"/>
  <text x="132" y="212" fill="#F8FAFC" font-family="Arial, sans-serif" font-size="24" font-weight="700">Develop</text>
  <text x="422" y="212" fill="#F8FAFC" font-family="Arial, sans-serif" font-size="24" font-weight="700">Build</text>
  <text x="705" y="212" fill="#F8FAFC" font-family="Arial, sans-serif" font-size="24" font-weight="700">Test</text>
  <text x="979" y="212" fill="#F8FAFC" font-family="Arial, sans-serif" font-size="24" font-weight="700">Release</text>
  <text x="114" y="244" fill="#CBD5E1" font-family="Arial, sans-serif" font-size="16">Code and reviews</text>
  <text x="387" y="244" fill="#CBD5E1" font-family="Arial, sans-serif" font-size="16">Images and artifacts</text>
  <text x="675" y="244" fill="#CBD5E1" font-family="Arial, sans-serif" font-size="16">Quality and validation</text>
  <text x="960" y="244" fill="#CBD5E1" font-family="Arial, sans-serif" font-size="16">Canary or blue-green</text>

  <path d="M284 222H338" stroke="#475569" stroke-width="4" stroke-linecap="round"/>
  <path d="M566 222H620" stroke="#475569" stroke-width="4" stroke-linecap="round"/>
  <path d="M848 222H902" stroke="#475569" stroke-width="4" stroke-linecap="round"/>
  <path d="M324 208L344 222L324 236" stroke="#475569" stroke-width="4" stroke-linecap="round" stroke-linejoin="round"/>
  <path d="M606 208L626 222L606 236" stroke="#475569" stroke-width="4" stroke-linecap="round" stroke-linejoin="round"/>
  <path d="M888 208L908 222L888 236" stroke="#475569" stroke-width="4" stroke-linecap="round" stroke-linejoin="round"/>
</svg>
