<svg xmlns="http://www.w3.org/2000/svg" width="1280" height="760" viewBox="0 0 1280 760" fill="none">
  <rect width="1280" height="760" rx="24" fill="#0F172A"/>
  <rect x="32" y="32" width="1216" height="696" rx="20" fill="#111827" stroke="#334155"/>
  <rect x="64" y="64" width="1152" height="72" rx="16" fill="#1E293B"/>
  <circle cx="104" cy="100" r="20" fill="#38BDF8"/>
  <rect x="136" y="82" width="180" height="12" rx="6" fill="#E2E8F0"/>
  <rect x="136" y="104" width="120" height="10" rx="5" fill="#94A3B8"/>
  <rect x="1024" y="82" width="82" height="28" rx="14" fill="#0F766E"/>
  <rect x="1118" y="82" width="66" height="28" rx="14" fill="#1D4ED8"/>
  <rect x="64" y="168" width="720" height="520" rx="18" fill="#0B1220" stroke="#334155"/>
  <rect x="812" y="168" width="404" height="520" rx="18" fill="#0B1220" stroke="#334155"/>

  <rect x="88" y="192" width="312" height="116" rx="16" fill="#111827" stroke="#334155"/>
  <text x="112" y="220" fill="#F8FAFC" font-family="Arial, sans-serif" font-size="20" font-weight="700">Basic Information</text>
  <text x="112" y="252" fill="#94A3B8" font-family="Arial, sans-serif" font-size="16">Provider</text>
  <text x="272" y="252" fill="#E2E8F0" font-family="Arial, sans-serif" font-size="16">QingCloud</text>
  <text x="112" y="278" fill="#94A3B8" font-family="Arial, sans-serif" font-size="16">Kubernetes</text>
  <text x="272" y="278" fill="#E2E8F0" font-family="Arial, sans-serif" font-size="16">v1.29.x</text>
  <text x="112" y="304" fill="#94A3B8" font-family="Arial, sans-serif" font-size="16">Visibility</text>
  <text x="272" y="304" fill="#38BDF8" font-family="Arial, sans-serif" font-size="16">Visible to Some Workspaces</text>

  <rect x="416" y="192" width="344" height="116" rx="16" fill="#111827" stroke="#334155"/>
  <text x="440" y="220" fill="#F8FAFC" font-family="Arial, sans-serif" font-size="20" font-weight="700">System Components</text>
  <circle cx="468" cy="266" r="20" fill="#38BDF8"/>
  <circle cx="528" cy="266" r="20" fill="#22C55E"/>
  <circle cx="588" cy="266" r="20" fill="#F59E0B"/>
  <circle cx="648" cy="266" r="20" fill="#A78BFA"/>
  <circle cx="708" cy="266" r="20" fill="#EF4444"/>
  <text x="448" y="300" fill="#94A3B8" font-family="Arial, sans-serif" font-size="14">Hub   K8s   Istio   Monitoring   DevOps</text>

  <rect x="88" y="328" width="672" height="196" rx="16" fill="#111827" stroke="#334155"/>
  <text x="112" y="356" fill="#F8FAFC" font-family="Arial, sans-serif" font-size="20" font-weight="700">Resource Usage</text>
  <g font-family="Arial, sans-serif" font-size="15">
    <text x="112" y="392" fill="#E2E8F0">GPU Memory</text>
    <rect x="232" y="378" width="428" height="12" rx="6" fill="#1E293B"/>
    <rect x="232" y="378" width="210" height="12" rx="6" fill="#38BDF8"/>
    <text x="676" y="390" fill="#94A3B8">49%</text>
    <text x="112" y="426" fill="#E2E8F0">GPU</text>
    <rect x="232" y="412" width="428" height="12" rx="6" fill="#1E293B"/>
    <rect x="232" y="412" width="166" height="12" rx="6" fill="#22C55E"/>
    <text x="676" y="424" fill="#94A3B8">39%</text>
    <text x="112" y="460" fill="#E2E8F0">CPU</text>
    <rect x="232" y="446" width="428" height="12" rx="6" fill="#1E293B"/>
    <rect x="232" y="446" width="268" height="12" rx="6" fill="#F59E0B"/>
    <text x="676" y="458" fill="#94A3B8">63%</text>
    <text x="112" y="494" fill="#E2E8F0">Memory</text>
    <rect x="232" y="480" width="428" height="12" rx="6" fill="#1E293B"/>
    <rect x="232" y="480" width="304" height="12" rx="6" fill="#A78BFA"/>
    <text x="676" y="492" fill="#94A3B8">71%</text>
  </g>

  <rect x="88" y="544" width="672" height="120" rx="16" fill="#111827" stroke="#334155"/>
  <text x="112" y="572" fill="#F8FAFC" font-family="Arial, sans-serif" font-size="20" font-weight="700">Tools</text>
  <rect x="112" y="592" width="180" height="48" rx="12" fill="#0F172A" stroke="#334155"/>
  <rect x="312" y="592" width="180" height="48" rx="12" fill="#0F172A" stroke="#334155"/>
  <text x="136" y="622" fill="#E2E8F0" font-family="Arial, sans-serif" font-size="18">kubectl</text>
  <text x="336" y="622" fill="#E2E8F0" font-family="Arial, sans-serif" font-size="18">kubeconfig</text>

  <rect x="836" y="192" width="356" height="176" rx="16" fill="#111827" stroke="#334155"/>
  <text x="860" y="220" fill="#F8FAFC" font-family="Arial, sans-serif" font-size="20" font-weight="700">Kubernetes Status</text>
  <text x="860" y="258" fill="#94A3B8" font-family="Arial, sans-serif" font-size="15">API requests per second</text>
  <text x="1088" y="258" fill="#E2E8F0" font-family="Arial, sans-serif" font-size="15">128.4</text>
  <text x="860" y="290" fill="#94A3B8" font-family="Arial, sans-serif" font-size="15">API request latency</text>
  <text x="1088" y="290" fill="#E2E8F0" font-family="Arial, sans-serif" font-size="15">19 ms</text>
  <text x="860" y="322" fill="#94A3B8" font-family="Arial, sans-serif" font-size="15">Scheduling operations</text>
  <text x="1088" y="322" fill="#E2E8F0" font-family="Arial, sans-serif" font-size="15">642</text>
  <text x="860" y="354" fill="#94A3B8" font-family="Arial, sans-serif" font-size="15">Scheduling failures</text>
  <text x="1088" y="354" fill="#E2E8F0" font-family="Arial, sans-serif" font-size="15">2</text>

  <rect x="836" y="388" width="356" height="276" rx="16" fill="#111827" stroke="#334155"/>
  <text x="860" y="416" fill="#F8FAFC" font-family="Arial, sans-serif" font-size="20" font-weight="700">Nodes Top 5</text>
  <rect x="860" y="434" width="220" height="32" rx="10" fill="#0F172A" stroke="#334155"/>
  <text x="876" y="455" fill="#94A3B8" font-family="Arial, sans-serif" font-size="14">Sort by GPU memory usage</text>
  <g font-family="Arial, sans-serif" font-size="15">
    <text x="860" y="506" fill="#E2E8F0">node-a</text>
    <rect x="940" y="494" width="180" height="10" rx="5" fill="#1E293B"/>
    <rect x="940" y="494" width="150" height="10" rx="5" fill="#38BDF8"/>
    <text x="1136" y="504" fill="#94A3B8">83%</text>
    <text x="860" y="544" fill="#E2E8F0">node-b</text>
    <rect x="940" y="532" width="180" height="10" rx="5" fill="#1E293B"/>
    <rect x="940" y="532" width="134" height="10" rx="5" fill="#38BDF8"/>
    <text x="1136" y="542" fill="#94A3B8">74%</text>
    <text x="860" y="582" fill="#E2E8F0">node-c</text>
    <rect x="940" y="570" width="180" height="10" rx="5" fill="#1E293B"/>
    <rect x="940" y="570" width="118" height="10" rx="5" fill="#38BDF8"/>
    <text x="1136" y="580" fill="#94A3B8">66%</text>
  </g>
  <rect x="1048" y="618" width="96" height="28" rx="14" fill="#1D4ED8"/>
  <text x="1070" y="637" fill="#F8FAFC" font-family="Arial, sans-serif" font-size="14">View More</text>
</svg>
