<svg xmlns="http://www.w3.org/2000/svg" width="1120" height="420" viewBox="0 0 1120 420" fill="none">
  <rect width="1120" height="420" rx="24" fill="#0F172A"/>
  <rect x="40" y="40" width="1040" height="340" rx="20" fill="#111827" stroke="#334155"/>
  <text x="72" y="86" fill="#F8FAFC" font-family="Arial, sans-serif" font-size="28" font-weight="700">Visibility Entry from Basic Information</text>
  <text x="72" y="118" fill="#94A3B8" font-family="Arial, sans-serif" font-size="18">In multicluster mode, the visibility field on the overview page links to cluster visibility settings.</text>
  <rect x="72" y="154" width="448" height="172" rx="18" fill="#0B1220" stroke="#334155"/>
  <text x="104" y="196" fill="#F8FAFC" font-family="Arial, sans-serif" font-size="22" font-weight="700">Basic Information</text>
  <text x="104" y="236" fill="#94A3B8" font-family="Arial, sans-serif" font-size="16">Provider</text>
  <text x="288" y="236" fill="#E2E8F0" font-family="Arial, sans-serif" font-size="16">QingCloud</text>
  <text x="104" y="268" fill="#94A3B8" font-family="Arial, sans-serif" font-size="16">Kubernetes version</text>
  <text x="288" y="268" fill="#E2E8F0" font-family="Arial, sans-serif" font-size="16">v1.29.x</text>
  <text x="104" y="300" fill="#94A3B8" font-family="Arial, sans-serif" font-size="16">Cluster visibility</text>
  <text x="288" y="300" fill="#38BDF8" font-family="Arial, sans-serif" font-size="16" font-weight="700">Visible to Some Workspaces</text>
  <path d="M560 240H706" stroke="#475569" stroke-width="4" stroke-linecap="round"/>
  <path d="M678 226L708 240L678 254" stroke="#475569" stroke-width="4" stroke-linecap="round" stroke-linejoin="round"/>
  <rect x="732" y="154" width="308" height="172" rx="18" fill="#0B1220" stroke="#334155"/>
  <text x="764" y="196" fill="#F8FAFC" font-family="Arial, sans-serif" font-size="22" font-weight="700">Cluster Visibility</text>
  <rect x="764" y="224" width="244" height="30" rx="10" fill="#111827" stroke="#334155"/>
  <text x="782" y="244" fill="#CBD5E1" font-family="Arial, sans-serif" font-size="15">workspace-alpha</text>
  <rect x="764" y="266" width="244" height="30" rx="10" fill="#111827" stroke="#334155"/>
  <text x="782" y="286" fill="#CBD5E1" font-family="Arial, sans-serif" font-size="15">workspace-beta</text>
  <rect x="892" y="306" width="116" height="28" rx="14" fill="#1D4ED8"/>
  <text x="916" y="325" fill="#F8FAFC" font-family="Arial, sans-serif" font-size="14">Edit Visibility</text>
</svg>
