<?xml version="1.0" encoding="UTF-8"?>
<svg xmlns="http://www.w3.org/2000/svg" width="1200" height="520" viewBox="0 0 1200 520" fill="none">
  <rect width="1200" height="520" rx="24" fill="#0F172A"/>
  <text x="56" y="60" fill="#F8FAFC" font-family="Arial, sans-serif" font-size="30" font-weight="700">高可用集群布局</text>
  <text x="56" y="94" fill="#94A3B8" font-family="Arial, sans-serif" font-size="18">负载均衡器前置三台控制平面节点与三台工作节点，以满足生产环境高可用。</text>

  <rect x="480" y="126" width="240" height="86" rx="18" fill="#1D4ED8" fill-opacity=".18" stroke="#60A5FA"/>
  <text x="536" y="160" fill="#F8FAFC" font-family="Arial, sans-serif" font-size="24" font-weight="700">负载均衡器</text>
  <text x="516" y="190" fill="#BFDBFE" font-family="Arial, sans-serif" font-size="16">6443 / 30880 / 80 / 443</text>

  <rect x="110" y="278" width="250" height="92" rx="16" fill="#111827" stroke="#334155"/>
  <rect x="475" y="278" width="250" height="92" rx="16" fill="#111827" stroke="#334155"/>
  <rect x="840" y="278" width="250" height="92" rx="16" fill="#111827" stroke="#334155"/>
  <text x="154" y="316" fill="#F8FAFC" font-family="Arial, sans-serif" font-size="20" font-weight="700">master1</text>
  <text x="519" y="316" fill="#F8FAFC" font-family="Arial, sans-serif" font-size="20" font-weight="700">master2</text>
  <text x="884" y="316" fill="#F8FAFC" font-family="Arial, sans-serif" font-size="20" font-weight="700">master3</text>
  <text x="154" y="346" fill="#CBD5E1" font-family="Arial, sans-serif" font-size="16">控制平面 + etcd</text>
  <text x="519" y="346" fill="#CBD5E1" font-family="Arial, sans-serif" font-size="16">控制平面 + etcd</text>
  <text x="884" y="346" fill="#CBD5E1" font-family="Arial, sans-serif" font-size="16">控制平面 + etcd</text>

  <rect x="110" y="404" width="250" height="72" rx="16" fill="#0B1220" stroke="#334155"/>
  <rect x="475" y="404" width="250" height="72" rx="16" fill="#0B1220" stroke="#334155"/>
  <rect x="840" y="404" width="250" height="72" rx="16" fill="#0B1220" stroke="#334155"/>
  <text x="168" y="448" fill="#38BDF8" font-family="Arial, sans-serif" font-size="20" font-weight="700">node1 工作节点</text>
  <text x="533" y="448" fill="#38BDF8" font-family="Arial, sans-serif" font-size="20" font-weight="700">node2 工作节点</text>
  <text x="898" y="448" fill="#38BDF8" font-family="Arial, sans-serif" font-size="20" font-weight="700">node3 工作节点</text>

  <path d="M600 212V252" stroke="#475569" stroke-width="4" stroke-linecap="round"/>
  <path d="M236 278V252H600" stroke="#475569" stroke-width="4" stroke-linecap="round" stroke-linejoin="round"/>
  <path d="M600 252H965V278" stroke="#475569" stroke-width="4" stroke-linecap="round" stroke-linejoin="round"/>
</svg>
